<?xml version="1.0" standalone="no"?>
<!DOCTYPE svg PUBLIC "-//W3C//DTD SVG 20010904//EN"
 "http://www.w3.org/TR/2001/REC-SVG-20010904/DTD/svg10.dtd">
<svg version="1.0" xmlns="http://www.w3.org/2000/svg"
 width="999.000000pt" height="1000.000000pt" viewBox="0 0 999.000000 1000.000000"
 preserveAspectRatio="xMidYMid meet">

<g transform="translate(0.000000,1000.000000) scale(0.100000,-0.100000)"
fill="#000000" stroke="none">
<path d="M0 5000 l0 -5000 4995 0 4995 0 0 5000 0 5000 -4995 0 -4995 0 0
-5000z m56 4509 c10 -17 -13 -36 -27 -22 -12 12 -4 33 11 33 5 0 12 -5 16 -11z
m4139 -288 c56 -25 102 -76 125 -138 20 -53 20 -78 20 -1820 l0 -1767 21 -43
c80 -165 316 -170 406 -8 l28 50 2 1005 c2 697 6 1017 14 1044 53 189 317 218
417 47 l27 -46 5 -790 5 -790 28 -48 c72 -122 240 -151 346 -60 74 63 75 68
81 344 l5 246 30 49 c107 173 363 141 421 -52 11 -38 14 -154 14 -617 0 -556
1 -572 21 -613 28 -59 78 -100 145 -120 62 -18 106 -13 165 16 48 25 103 89
117 139 9 27 12 235 12 736 l0 697 27 49 c29 55 95 105 150 115 99 19 187 -19
248 -105 l30 -43 3 -544 3 -545 196 -237 c108 -130 249 -300 313 -377 64 -77
172 -207 240 -290 69 -82 133 -160 143 -172 17 -22 17 -22 -20 -21 -21 0
-1370 -3 -2998 -7 -2893 -8 -2960 -8 -2945 11 18 22 197 238 606 729 l299 360
-3 628 c-3 712 -4 703 69 782 111 121 308 88 379 -62 23 -48 23 -53 24 -513
l1 -466 25 -49 c81 -157 298 -164 398 -12 l27 41 5 1560 5 1561 33 52 c65 101
186 140 287 94z m-3945 -314 c0 -5 -4 -5 -10 -2 -5 3 -10 14 -10 23 0 15 2 15
10 2 5 -8 10 -19 10 -23z m-70 -197 c0 -5 -4 -10 -10 -10 -5 0 -10 5 -10 10 0
6 5 10 10 10 6 0 10 -4 10 -10z m386 -117 c-10 -10 -19 5 -10 18 6 11 8 11 12
0 2 -7 1 -15 -2 -18z m-46 -57 c0 -3 -4 -8 -10 -11 -5 -3 -10 -1 -10 4 0 6 5
11 10 11 6 0 10 -2 10 -4z m320 -76 c0 -5 -4 -10 -10 -10 -5 0 -10 5 -10 10 0
6 5 10 10 10 6 0 10 -4 10 -10z m-200 -60 c0 -5 -7 -10 -16 -10 -8 0 -12 5 -9
10 3 6 10 10 16 10 5 0 9 -4 9 -10z m520 0 c0 -5 -5 -10 -11 -10 -5 0 -7 5 -4
10 3 6 8 10 11 10 2 0 4 -4 4 -10z m4885 -19 c50 -23 98 -73 122 -126 17 -37
18 -86 21 -600 2 -308 0 -580 -3 -604 -5 -35 -17 -54 -63 -101 -48 -49 -65
-60 -109 -69 -133 -27 -256 51 -284 180 -9 40 -10 200 -5 612 7 614 4 589 70
660 59 63 172 85 251 48z m-5995 -41 c0 -5 -4 -10 -10 -10 -5 0 -10 5 -10 10
0 6 5 10 10 10 6 0 10 -4 10 -10z m1176 -27 c-10 -10 -19 5 -10 18 6 11 8 11
12 0 2 -7 1 -15 -2 -18z m274 23 c0 -3 -4 -8 -10 -11 -5 -3 -10 -1 -10 4 0 6
5 11 10 11 6 0 10 -2 10 -4z m-990 -71 c0 -8 -4 -15 -10 -15 -5 0 -10 7 -10
15 0 8 5 15 10 15 6 0 10 -7 10 -15z m-317 -70 c1 -5 -6 -11 -15 -13 -11 -2
-18 3 -18 13 0 17 30 18 33 0z m457 -71 c0 -2 -7 -4 -15 -4 -8 0 -15 4 -15 10
0 5 7 7 15 4 8 -4 15 -8 15 -10z m1175 7 c10 -17 -12 -21 -25 -6 -10 12 -10
15 3 15 9 0 18 -4 22 -9z m-1465 -131 c0 -5 -2 -10 -4 -10 -3 0 -8 5 -11 10
-3 6 -1 10 4 10 6 0 11 -4 11 -10z m545 0 c3 -5 -1 -10 -10 -10 -9 0 -13 5
-10 10 3 6 8 10 10 10 2 0 7 -4 10 -10z m1559 -5 c-4 -8 -10 -12 -15 -9 -14 8
-10 24 6 24 9 0 12 -6 9 -15z m789 -49 c59 -21 103 -62 132 -120 25 -51 26
-61 26 -217 0 -90 -4 -176 -10 -190 -15 -40 -69 -98 -112 -119 -118 -61 -258
-15 -322 104 -20 38 -22 55 -22 206 0 147 3 170 22 211 50 108 177 164 286
125z m-2673 -6 c0 -5 -7 -10 -15 -10 -8 0 -15 5 -15 10 0 6 7 10 15 10 8 0 15
-4 15 -10z m515 0 c3 -5 -1 -10 -9 -10 -9 0 -16 5 -16 10 0 6 4 10 9 10 6 0
13 -4 16 -10z m-455 -65 c0 -8 -7 -15 -15 -15 -8 0 -15 7 -15 15 0 8 7 15 15
15 8 0 15 -7 15 -15z m1050 -6 c0 -6 -4 -7 -10 -4 -5 3 -10 11 -10 16 0 6 5 7
10 4 6 -3 10 -11 10 -16z m-1430 1 c0 -5 -4 -10 -10 -10 -5 0 -10 5 -10 10 0
6 5 10 10 10 6 0 10 -4 10 -10z m1038 -1 c-2 -6 -8 -10 -13 -10 -5 0 -11 4
-13 10 -2 6 4 11 13 11 9 0 15 -5 13 -11z m591 -75 c-15 -18 -22 -13 -13 10 3
9 10 13 16 10 5 -3 4 -12 -3 -20z m721 -56 c0 -12 -28 -9 -36 3 -3 6 0 15 7
20 13 7 28 -5 29 -23z m-2360 -3 c0 -8 -7 -15 -15 -15 -16 0 -20 12 -8 23 11
12 23 8 23 -8z m1892 -67 c-9 -9 -12 -7 -12 12 0 19 3 21 12 12 9 -9 9 -15 0
-24z m530 7 c0 -5 -5 -11 -11 -13 -6 -2 -11 4 -11 13 0 9 5 15 11 13 6 -2 11
-8 11 -13z m-1112 -53 c0 -13 -12 -22 -22 -16 -10 6 -1 24 13 24 5 0 9 -4 9
-8z m-915 -12 c3 -5 -1 -10 -9 -10 -9 0 -16 5 -16 10 0 6 4 10 9 10 6 0 13 -4
16 -10z m1695 0 c0 -5 -2 -10 -4 -10 -3 0 -8 5 -11 10 -3 6 -1 10 4 10 6 0 11
-4 11 -10z m-1630 -59 c0 -6 -4 -13 -10 -16 -5 -3 -10 1 -10 9 0 9 5 16 10 16
6 0 10 -4 10 -9z m-270 -11 c0 -5 -2 -10 -4 -10 -3 0 -8 5 -11 10 -3 6 -1 10
4 10 6 0 11 -4 11 -10z m80 -55 c0 -8 -4 -15 -10 -15 -5 0 -10 7 -10 15 0 8 5
15 10 15 6 0 10 -7 10 -15z m1560 11 c0 -2 -7 -6 -15 -10 -8 -3 -15 -1 -15 4
0 6 7 10 15 10 8 0 15 -2 15 -4z m-780 -16 c0 -5 -4 -10 -10 -10 -5 0 -10 5
-10 10 0 6 5 10 10 10 6 0 10 -4 10 -10z m330 -196 c0 -8 -4 -14 -10 -14 -5 0
-10 9 -10 21 0 11 5 17 10 14 6 -3 10 -13 10 -21z m-65 -54 c4 -6 -6 -10 -22
-10 -22 0 -25 2 -13 10 19 12 27 12 35 0z m515 -20 c0 -5 -4 -10 -10 -10 -5 0
-10 5 -10 10 0 6 5 10 10 10 6 0 10 -4 10 -10z m-850 -50 c0 -5 -7 -10 -16
-10 -8 0 -12 5 -9 10 3 6 10 10 16 10 5 0 9 -4 9 -10z m-465 -60 c3 -6 -1 -13
-10 -16 -19 -8 -30 0 -20 15 8 14 22 14 30 1z m533 -12 c-3 -7 -11 -13 -18
-13 -7 0 -15 6 -17 13 -3 7 4 12 17 12 13 0 20 -5 18 -12z m-68 -68 c0 -5 -7
-7 -15 -4 -8 4 -12 10 -9 15 6 11 24 2 24 -11z m635 10 c-3 -5 -11 -10 -16
-10 -6 0 -7 5 -4 10 3 6 11 10 16 10 6 0 7 -4 4 -10z m-571 -71 c-3 -5 -10 -7
-15 -3 -5 3 -7 10 -3 15 3 5 10 7 15 3 5 -3 7 -10 3 -15z m-894 -9 c0 -5 -2
-10 -4 -10 -3 0 -8 5 -11 10 -3 6 -1 10 4 10 6 0 11 -4 11 -10z m1480 -55 c0
-8 -7 -15 -15 -15 -26 0 -18 20 13 29 1 1 2 -6 2 -14z m-784 -22 c-10 -10 -19
5 -10 18 6 11 8 11 12 0 2 -7 1 -15 -2 -18z m134 23 c0 -3 -4 -8 -10 -11 -5
-3 -10 -1 -10 4 0 6 5 11 10 11 6 0 10 -2 10 -4z m-75 -66 c-3 -5 -10 -10 -16
-10 -5 0 -9 5 -9 10 0 6 7 10 16 10 8 0 12 -4 9 -10z m-898 -6 c-3 -3 -12 -4
-19 -1 -8 3 -5 6 6 6 11 1 17 -2 13 -5z m1303 -14 c0 -5 -4 -10 -10 -10 -5 0
-10 5 -10 10 0 6 5 10 10 10 6 0 10 -4 10 -10z m-782 -238 c2 -7 -3 -12 -12
-12 -9 0 -16 7 -16 16 0 17 22 14 28 -4z m1572 -136 c0 -3 -4 -8 -10 -11 -5
-3 -10 -1 -10 4 0 6 5 11 10 11 6 0 10 -2 10 -4z m-850 -196 c0 -5 -9 -10 -21
-10 -11 0 -17 5 -14 10 3 6 13 10 21 10 8 0 14 -4 14 -10z m60 -324 c0 -3 -4
-8 -10 -11 -5 -3 -10 -1 -10 4 0 6 5 11 10 11 6 0 10 -2 10 -4z m324 -332 c4
-10 1 -14 -6 -12 -15 5 -23 28 -10 28 5 0 13 -7 16 -16z m136 -122 c0 -14 -11
-21 -26 -15 -8 3 -11 9 -8 14 7 11 34 12 34 1z m-465 -81 c3 -5 1 -12 -5 -16
-5 -3 -10 1 -10 9 0 18 6 21 15 7z m2404 -1904 c162 -391 347 -840 412 -997
64 -157 160 -391 214 -520 127 -308 137 -332 127 -326 -5 3 -17 23 -28 45 -12
25 -26 41 -37 41 -10 0 -15 5 -12 10 4 6 11 7 17 4 8 -5 9 -1 4 12 -5 10 -13
31 -18 47 -5 15 -17 27 -26 28 -11 0 -13 2 -4 6 9 4 10 8 2 18 -6 7 -10 17 -8
21 4 15 -31 72 -49 83 -10 6 -12 11 -5 11 19 0 14 30 -5 30 -16 0 -16 2 -3 11
11 8 12 12 3 16 -7 2 -13 10 -13 18 0 7 -7 18 -15 25 -9 8 -13 21 -10 34 5 17
4 18 -4 6 -9 -12 -11 -11 -11 7 0 35 -22 76 -32 61 -6 -10 -8 -10 -8 2 0 13
-2 13 -9 1 -12 -18 -3 -41 15 -41 23 0 16 -18 -8 -22 -13 -2 -23 -7 -24 -13 0
-5 -6 -30 -14 -55 -7 -25 -13 -51 -11 -57 5 -28 -7 -20 -132 92 -90 82 -1490
1470 -2052 2035 l-80 80 765 0 765 0 294 -713z m2101 707 c0 -8 -182 -448
-375 -909 -35 -82 -143 -340 -240 -573 -97 -233 -192 -457 -211 -498 -19 -41
-34 -76 -34 -79 0 -4 -23 -57 -60 -140 -5 -11 -16 -38 -25 -60 -27 -69 -79
-175 -85 -175 -4 0 -15 20 -27 45 -18 40 -19 45 -4 46 13 0 14 1 1 6 -13 5
-32 28 -36 43 -1 8 -23 61 -39 95 -8 16 -24 57 -36 90 -12 33 -26 65 -31 72
-5 7 -7 16 -4 21 3 6 -1 15 -9 22 -8 7 -13 16 -10 20 3 4 -2 13 -10 20 -8 6
-17 32 -21 56 -3 24 -10 44 -15 44 -5 0 -9 4 -9 10 0 5 -13 38 -28 72 -16 35
-39 90 -52 123 -25 65 -27 68 -153 350 -47 105 -138 316 -203 470 -64 154
-168 402 -231 550 -62 149 -113 273 -113 278 0 4 464 7 1030 7 567 0 1030 -3
1030 -6z m1849 -4 c-9 -5 -166 -161 -349 -347 -589 -596 -2221 -2225 -2226
-2220 -2 2 11 42 30 88 36 89 661 1598 853 2059 63 151 129 310 146 352 l32
78 765 0 c477 -1 759 -4 749 -10z m-3449 -2210 c11 -8 7 -9 -15 -4 -37 8 -45
14 -19 14 10 0 26 -5 34 -10z m60 -10 c0 -5 -4 -10 -10 -10 -5 0 -10 5 -10 10
0 6 5 10 10 10 6 0 10 -4 10 -10z"/>
<path d="M4451 2204 c0 -11 3 -14 6 -6 3 7 2 16 -1 19 -3 4 -6 -2 -5 -13z"/>
</g>
</svg>
